<svg xmlns="http://www.w3.org/2000/svg" width="1000" height="1000" viewBox="0 0 1000 1000" version="1.1"><path d="M 461.500 1.149 C 284.359 15.157, 127.959 121.468, 50.535 280.500 C 7.440 369.017, -8.571 467.044, 4.066 565 C 19.300 683.085, 78.523 794.980, 167.291 873.395 C 235.157 933.345, 314.833 972.903, 403 990.419 C 449.847 999.727, 504.436 1002.363, 550 997.518 C 642.106 987.724, 728.163 953.893, 801.389 898.691 C 851.999 860.539, 897.804 809.252, 930.168 754.500 C 969.621 687.755, 994.554 607.654, 998.679 534.396 C 999.147 526.085, 999.646 522.567, 1000.084 524.500 C 1000.458 526.150, 1000.753 514.675, 1000.740 499 C 1000.727 483.325, 1000.394 472.300, 1000 474.500 C 999.365 478.045, 999.268 477.729, 999.142 471.722 C 998.930 461.577, 996.275 437.476, 993.452 420.061 C 972.766 292.461, 903.873 178.100, 800.989 100.578 C 740.004 54.626, 668.892 23.133, 593.157 8.538 C 576.828 5.391, 554.164 2.449, 535.500 1.054 C 519.211 -0.163, 477.417 -0.109, 461.500 1.149 M 473 51.002 C 350.959 59.412, 241.447 113.191, 161.935 203.760 C 119.928 251.609, 88.077 308.837, 69.691 369.500 C 36.836 477.904, 46.045 594.347, 95.553 696.500 C 158.580 826.549, 281.779 919.132, 424.159 943.444 C 452.111 948.217, 467.207 949.395, 500.500 949.397 C 542.451 949.401, 570.803 946.014, 609.035 936.432 C 712.207 910.575, 801.429 850.374, 864.280 764.211 C 904.582 708.961, 932.412 642.309, 943.912 573.500 C 948.303 547.223, 949.393 532.744, 949.405 500.500 C 949.421 458.456, 946.204 430.756, 936.922 393 C 891.480 208.154, 734.936 72.115, 545.175 52.565 C 526.400 50.631, 489.869 49.840, 473 51.002 M 370.669 236.250 C 364.522 244.462, 362.378 252.184, 363.924 260.548 C 364.520 263.771, 365.426 266.826, 365.938 267.338 C 366.450 267.850, 372.281 269.095, 378.894 270.103 C 401.990 273.625, 413.645 277.554, 418.962 283.609 C 425.909 291.521, 427.456 310.135, 422.693 328.500 C 421.267 334, 400.923 419.500, 377.486 518.500 C 354.048 617.500, 333.743 701.869, 332.364 705.986 C 329.040 715.907, 322.721 727.900, 317.978 733.288 C 310.195 742.130, 293.178 748.451, 266.500 752.409 C 256.977 753.822, 256.346 754.069, 253.265 757.595 C 245.573 766.400, 243.155 776.348, 246.609 784.980 L 248.217 789 263.359 788.996 C 271.686 788.994, 310.900 788.279, 350.500 787.407 C 463.543 784.916, 581.465 785.326, 704.134 788.635 L 728.768 789.299 730.961 779.400 C 741.760 730.647, 764.763 643.666, 776.481 607.275 C 778.966 599.556, 781 592.546, 781 591.697 C 781 589.448, 775.174 583.984, 770.522 581.871 C 765.621 579.645, 748.340 579.209, 745.867 581.250 C 745.034 581.938, 743.081 585.650, 741.528 589.500 C 732.723 611.320, 715.246 640.630, 698.746 661.246 C 688.772 673.709, 666.578 696.079, 655 705.340 C 628.782 726.310, 599.927 740.247, 574 744.462 C 561.043 746.569, 531.487 747.522, 521.853 746.143 C 496.176 742.469, 488.860 730.683, 493.896 701.105 C 496.748 684.354, 580.076 334.306, 584.435 320.762 C 588.842 307.068, 595.040 294.563, 600.528 288.290 C 608.447 279.237, 622.787 273.690, 647.700 270.042 C 657.023 268.677, 661.887 267.508, 663.207 266.313 C 666.197 263.606, 672.016 250.658, 672.651 245.297 C 673.037 242.039, 672.716 239.255, 671.663 236.735 L 670.102 233 648.801 233.009 C 637.085 233.014, 612.875 233.727, 595 234.593 C 553.143 236.620, 494.537 236.624, 451.500 234.602 C 432.800 233.723, 407.510 233.003, 395.301 233.002 L 373.102 233 370.669 236.250 M 0.441 500 C 0.441 515.675, 0.579 522.087, 0.748 514.250 C 0.917 506.412, 0.917 493.587, 0.748 485.750 C 0.579 477.912, 0.441 484.325, 0.441 500" stroke="none" fill="#990567" fill-rule="evenodd"/><path d="M 473 51.002 C 350.959 59.412, 241.447 113.191, 161.935 203.760 C 119.928 251.609, 88.077 308.837, 69.691 369.500 C 36.836 477.904, 46.045 594.347, 95.553 696.500 C 158.580 826.549, 281.779 919.132, 424.159 943.444 C 452.111 948.217, 467.207 949.395, 500.500 949.397 C 542.451 949.401, 570.803 946.014, 609.035 936.432 C 712.207 910.575, 801.429 850.374, 864.280 764.211 C 904.582 708.961, 932.412 642.309, 943.912 573.500 C 948.303 547.223, 949.393 532.744, 949.405 500.500 C 949.421 458.456, 946.204 430.756, 936.922 393 C 891.480 208.154, 734.936 72.115, 545.175 52.565 C 526.400 50.631, 489.869 49.840, 473 51.002 M 370.669 236.250 C 364.522 244.462, 362.378 252.184, 363.924 260.548 C 364.520 263.771, 365.426 266.826, 365.938 267.338 C 366.450 267.850, 372.281 269.095, 378.894 270.103 C 401.990 273.625, 413.645 277.554, 418.962 283.609 C 425.909 291.521, 427.456 310.135, 422.693 328.500 C 421.267 334, 400.923 419.500, 377.486 518.500 C 354.048 617.500, 333.743 701.869, 332.364 705.986 C 329.040 715.907, 322.721 727.900, 317.978 733.288 C 310.195 742.130, 293.178 748.451, 266.500 752.409 C 256.977 753.822, 256.346 754.069, 253.265 757.595 C 245.573 766.400, 243.155 776.348, 246.609 784.980 L 248.217 789 263.359 788.996 C 271.686 788.994, 310.900 788.279, 350.500 787.407 C 463.543 784.916, 581.465 785.326, 704.134 788.635 L 728.768 789.299 730.961 779.400 C 741.760 730.647, 764.763 643.666, 776.481 607.275 C 778.966 599.556, 781 592.546, 781 591.697 C 781 589.448, 775.174 583.984, 770.522 581.871 C 765.621 579.645, 748.340 579.209, 745.867 581.250 C 745.034 581.938, 743.081 585.650, 741.528 589.500 C 732.723 611.320, 715.246 640.630, 698.746 661.246 C 688.772 673.709, 666.578 696.079, 655 705.340 C 628.782 726.310, 599.927 740.247, 574 744.462 C 561.043 746.569, 531.487 747.522, 521.853 746.143 C 496.176 742.469, 488.860 730.683, 493.896 701.105 C 496.748 684.354, 580.076 334.306, 584.435 320.762 C 588.842 307.068, 595.040 294.563, 600.528 288.290 C 608.447 279.237, 622.787 273.690, 647.700 270.042 C 657.023 268.677, 661.887 267.508, 663.207 266.313 C 666.197 263.606, 672.016 250.658, 672.651 245.297 C 673.037 242.039, 672.716 239.255, 671.663 236.735 L 670.102 233 648.801 233.009 C 637.085 233.014, 612.875 233.727, 595 234.593 C 553.143 236.620, 494.537 236.624, 451.500 234.602 C 432.800 233.723, 407.510 233.003, 395.301 233.002 L 373.102 233 370.669 236.250 M 999.100 526.450 C 999.032 529.819, 999.326 531.074, 1000.021 530.379 C 1000.689 529.711, 1000.724 527.996, 1000.122 525.429 L 999.201 521.500 999.100 526.450 M 914.647 779 C 910.985 784.500, 908.205 789, 908.469 789 C 908.733 789, 911.580 785.063, 914.795 780.250 C 921.611 770.051, 922.257 769, 921.712 769 C 921.488 769, 918.309 773.500, 914.647 779 M 900.103 799.500 C 896.176 804.725, 893.176 809, 893.436 809 C 893.697 809, 896.704 805.288, 900.118 800.750 C 903.532 796.212, 906.757 791.938, 907.285 791.250 C 907.813 790.563, 908.020 790, 907.744 790 C 907.469 790, 904.030 794.275, 900.103 799.500 M 882.937 821.250 C 869.549 837.262, 842.875 864.202, 826.500 878.250 C 811.889 890.785, 807.418 894.885, 812.500 891.089 C 821.085 884.677, 841.434 866.425, 853.930 853.930 C 868.486 839.374, 894.439 810, 892.744 810 C 892.523 810, 888.110 815.063, 882.937 821.250 M 800 899.626 C 792.441 905.408, 786.710 910.336, 791 907.364 C 795.795 904.043, 809 893.839, 809 893.455 C 809 892.743, 808.976 892.759, 800 899.626 M 779.233 914.411 C 770.685 920.212, 766.391 923.500, 770 921.482 C 773.475 919.538, 789 908.909, 789 908.474 C 789 907.769, 789.203 907.646, 779.233 914.411" stroke="none" fill="#100416" fill-rule="evenodd"/></svg>